<?xml version="1.0" encoding="utf-8"?>
<!-- Generator: Adobe Illustrator 25.4.1, SVG Export Plug-In . SVG Version: 6.00 Build 0)  -->
<svg version="1.1" id="Layer_1" xmlns="http://www.w3.org/2000/svg" xmlns:xlink="http://www.w3.org/1999/xlink" x="0px" y="0px"
	 viewBox="0 0 218 70" style="enable-background:new 0 0 218 70;" xml:space="preserve">
<style type="text/css">
	.st0{clip-path:url(#SVGID_00000091709019965750415900000005823754173366811804_);}
	
		.st1{clip-path:url(#SVGID_00000060709789214336241120000005996409751887189680_);fill:url(#SVGID_00000045591080943979577750000018305237565450198199_);}
	.st2{clip-path:url(#SVGID_00000064324889178734565930000008170305143896173481_);fill:#363636;}
	.st3{clip-path:url(#SVGID_00000091709019965750415900000005823754173366811804_);fill:#D1401F;}
	.st4{clip-path:url(#SVGID_00000091709019965750415900000005823754173366811804_);fill:#F26621;}
	.st5{clip-path:url(#SVGID_00000091709019965750415900000005823754173366811804_);fill:#F59626;}
	.st6{clip-path:url(#SVGID_00000091709019965750415900000005823754173366811804_);fill:#EDAD2B;}
	.st7{clip-path:url(#SVGID_00000091709019965750415900000005823754173366811804_);fill:#ED9126;}
	.st8{clip-path:url(#SVGID_00000091709019965750415900000005823754173366811804_);fill:#E06626;}
	.st9{clip-path:url(#SVGID_00000091709019965750415900000005823754173366811804_);fill:#F5703B;}
	.st10{clip-path:url(#SVGID_00000091709019965750415900000005823754173366811804_);fill:#F26E2B;}
	.st11{clip-path:url(#SVGID_00000091709019965750415900000005823754173366811804_);fill:#F78A40;}
	.st12{clip-path:url(#SVGID_00000091709019965750415900000005823754173366811804_);fill:#D44221;}
	.st13{clip-path:url(#SVGID_00000091709019965750415900000005823754173366811804_);fill:#E87054;}
	.st14{clip-path:url(#SVGID_00000091709019965750415900000005823754173366811804_);fill:#DB5C40;}
	.st15{clip-path:url(#SVGID_00000091709019965750415900000005823754173366811804_);fill:#F26B4D;}
	.st16{clip-path:url(#SVGID_00000091709019965750415900000005823754173366811804_);fill:#EDAB24;}
	.st17{clip-path:url(#SVGID_00000091709019965750415900000005823754173366811804_);fill:#ED8021;}
	.st18{clip-path:url(#SVGID_00000027570460445181057230000002590390210969145019_);}
	.st19{opacity:0.14;clip-path:url(#SVGID_00000152945445308639297540000007699134439136960148_);}
	.st20{clip-path:url(#SVGID_00000145755997027549692880000004214387118188048512_);fill:#EF6922;}
	.st21{opacity:0.18;clip-path:url(#SVGID_00000152945445308639297540000007699134439136960148_);}
	.st22{clip-path:url(#SVGID_00000088817415145436526390000017487203075691356849_);fill:#EF6922;}
	.st23{opacity:0.12;clip-path:url(#SVGID_00000152945445308639297540000007699134439136960148_);}
	.st24{clip-path:url(#SVGID_00000012448860144463271270000009262733597197540022_);fill:#EF6922;}
	
		.st25{clip-path:url(#SVGID_00000012448860144463271270000009262733597197540022_);fill:none;stroke:#EBAB29;stroke-width:0;stroke-miterlimit:10;}
	.st26{opacity:0.23;clip-path:url(#SVGID_00000115494046977547386060000007140894160947263373_);}
	.st27{clip-path:url(#SVGID_00000100359993150184631710000011250620957807882134_);fill:#EF6922;}
	.st28{opacity:0.25;clip-path:url(#SVGID_00000115494046977547386060000007140894160947263373_);}
	
		.st29{clip-path:url(#SVGID_00000052086572239549165650000000704963240406240675_);fill:none;stroke:#EBAB29;stroke-width:0.818;stroke-miterlimit:10;}
	
		.st30{clip-path:url(#SVGID_00000047022545607153375090000010338947168660898444_);fill:none;stroke:#EBAB29;stroke-width:0.818;stroke-miterlimit:10;}
</style>
<g>
	<defs>
		<rect id="SVGID_1_" x="-560" y="-35" width="792" height="612"/>
	</defs>
	<clipPath id="SVGID_00000000199130863324317570000014217185025133052055_">
		<use xlink:href="#SVGID_1_"  style="overflow:visible;"/>
	</clipPath>
	<g style="clip-path:url(#SVGID_00000000199130863324317570000014217185025133052055_);">
		<defs>
			<polygon id="SVGID_00000111152843556832789460000011289564291395236482_" points="-560,155.1 -560,577 232,577 232,291.8 
				-282.5,-5 			"/>
		</defs>
		<clipPath id="SVGID_00000072259889463520432810000011251061898367358859_">
			<use xlink:href="#SVGID_00000111152843556832789460000011289564291395236482_"  style="overflow:visible;"/>
		</clipPath>
		
			<linearGradient id="SVGID_00000150062398027289200220000017988045917726332329_" gradientUnits="userSpaceOnUse" x1="-560" y1="576.8699" x2="-559" y2="576.8699" gradientTransform="matrix(308.4276 1008.8214 -1008.8214 308.4276 754372.75 386840.5625)">
			<stop  offset="0" style="stop-color:#ED9126"/>
			<stop  offset="0.2524" style="stop-color:#ED9126"/>
			<stop  offset="0.8783" style="stop-color:#F26621"/>
			<stop  offset="1" style="stop-color:#F26621"/>
		</linearGradient>
		
			<polygon style="clip-path:url(#SVGID_00000072259889463520432810000011251061898367358859_);fill:url(#SVGID_00000150062398027289200220000017988045917726332329_);" points="
			-722.7,44.8 -492.3,798.4 394.7,527.2 164.3,-226.4 		"/>
	</g>
	<g style="clip-path:url(#SVGID_00000000199130863324317570000014217185025133052055_);">
		<defs>
			<rect id="SVGID_00000102546478667065036700000001711123626090658743_" x="-560" y="-35" width="792" height="612"/>
		</defs>
		<clipPath id="SVGID_00000075144418697767218090000002999644966727484034_">
			<use xlink:href="#SVGID_00000102546478667065036700000001711123626090658743_"  style="overflow:visible;"/>
		</clipPath>
		<path style="clip-path:url(#SVGID_00000075144418697767218090000002999644966727484034_);fill:#363636;" d="M68.3,39.9
			c-3.2,0-5.1-1.8-6-3.4c0,0,0-0.1,0-0.1l2.2-1.6c0,0,0.1,0,0.1,0c0.9,1.5,2.5,2.2,4.1,2.2c1.4,0,2.1-0.9,2.1-1.9c0-1-0.7-2-2.6-2.7
			c-3.2-1.1-5.1-2.6-5.1-5.5c0-2.8,2.2-4.7,5-4.7c2.8,0,4.5,1.5,5.6,3c0,0,0,0.1,0,0.1l-2.1,1.7c0,0-0.1,0-0.1,0
			c-0.9-1-2-1.8-3.3-1.8c-1.2,0-1.9,0.8-1.9,1.9c0,1,0.9,1.6,2.9,2.2c3,1,4.8,2.9,4.8,5.4C74,37.4,72.3,39.9,68.3,39.9 M79.9,38.5
			l-5-10.8c0,0,0-0.1,0.1-0.1h3.1c0,0,0.1,0,0.1,0.1l3.3,7.4l3.2-7.4c0,0,0,0,0.1,0h2.9c0.1,0,0.1,0,0.1,0.1l-7.1,16.2
			c0,0,0,0.1-0.1,0.1h-2.8c-0.1,0-0.1,0-0.1-0.1L79.9,38.5z M101.4,32.8v6.7c0,0,0,0.1-0.1,0.1h-2.8c0,0-0.1,0-0.1-0.1V33
			c0-2.4-1.2-3-2.6-3c-1.8,0-3.1,0.8-3.1,3.2v6.3c0,0,0,0.1-0.1,0.1h-2.8c0,0-0.1,0-0.1-0.1V27.7c0,0,0-0.1,0.1-0.1h2.8
			c0,0,0.1,0,0.1,0.1V29c0.7-1.1,2-1.7,4-1.7C99.2,27.4,101.4,29.3,101.4,32.8 M109.2,39.9c-2.3,0-3.9-1.6-3.9-4.4v-5.3l-2.1-0.1
			c0,0-0.1,0-0.1-0.1v-2.3c0,0,0-0.1,0.1-0.1h2.1c0,0,0.1-3.8,0.1-3.8c0-0.1,0-0.1,0.1-0.1l2.7-0.6c0.1,0,0.1,0,0.1,0.1v4.5h3.6
			c0,0,0.1,0,0.1,0.1V30c0,0,0,0.1-0.1,0.1c0,0-3.6,0.1-3.6,0.1v4.5c0,2.1,0.5,2.6,1.5,2.6c0.7,0,1.5-0.6,1.9-1c0,0,0.1,0,0.1,0
			l0.7,2.2c0,0.1,0,0.1,0,0.1C111.8,39.1,110.5,39.9,109.2,39.9 M126.2,32.8v6.7c0,0,0,0.1-0.1,0.1h-2.8c0,0-0.1,0-0.1-0.1V33
			c0-2.4-1.2-3-2.6-3c-1.8,0-3.1,0.8-3.1,3.2v6.3c0,0,0,0.1-0.1,0.1h-2.8c0,0-0.1,0-0.1-0.1V22.5c0,0,0-0.1,0.1-0.1h2.8
			c0,0,0.1,0,0.1,0.1V29c0.7-1.1,2-1.7,4-1.7C124.1,27.4,126.2,29.3,126.2,32.8 M131.6,32.3h5.9c-0.3-1.8-1.4-2.5-2.8-2.5
			C133,29.8,132,30.9,131.6,32.3 M131.5,34.6c0.2,1.7,1.3,2.8,3.6,2.8c1.7,0,2.6-0.4,3.3-0.9c0,0,0.1,0,0.1,0l1.2,2
			c0,0.1,0,0.1,0,0.1c-1.4,0.8-2.9,1.3-4.7,1.3c-3,0-6.4-2-6.4-6.3c0-4,3.4-6.3,6.1-6.3c2.1,0,5.7,1,5.8,6.5c0,0.2,0,0.6,0,0.8
			c0,0.1,0,0.1-0.1,0.1L131.5,34.6z M147,39.9c-1.7,0-3.7-0.6-5.2-2.2c0,0,0,0,0-0.1l1.5-1.6c0,0,0.1,0,0.1,0
			c0.9,0.8,2.2,1.4,3.6,1.4c1.1,0,1.6-0.4,1.6-1c0-1-1-1.2-2.7-1.7c-2-0.6-3.4-1.6-3.4-3.9c0-2,1.9-3.4,3.9-3.4
			c2.3,0,3.5,0.7,4.6,1.8c0,0,0,0.1,0,0.1l-1.5,1.7c0,0-0.1,0-0.1,0c-0.9-0.8-1.8-1.1-2.9-1.1c-0.8,0-1.3,0.4-1.3,1
			c0,0.8,0.8,1,2.6,1.5c1.9,0.6,3.7,1.5,3.7,3.8C151.4,38.7,149.4,39.9,147,39.9 M153.9,25.6C153.8,25.6,153.8,25.6,153.9,25.6
			l-0.1-3.1c0,0,0-0.1,0.1-0.1h3c0,0,0.1,0,0.1,0.1l-0.1,3c0,0,0,0.1-0.1,0.1H153.9z M153.9,39.6C153.9,39.6,153.9,39.5,153.9,39.6
			l-0.1-11.8c0,0,0-0.1,0.1-0.1h2.8c0,0,0.1,0,0.1,0.1v11.8c0,0,0,0.1-0.1,0.1H153.9z M164.2,39.9c-1.7,0-3.7-0.6-5.2-2.2
			c0,0,0,0,0-0.1l1.5-1.6c0,0,0.1,0,0.1,0c0.9,0.8,2.2,1.4,3.6,1.4c1.1,0,1.6-0.4,1.6-1c0-1-1-1.2-2.7-1.7c-2-0.6-3.4-1.6-3.4-3.9
			c0-2,1.9-3.4,3.9-3.4c2.3,0,3.5,0.7,4.6,1.8c0,0,0,0.1,0,0.1l-1.5,1.7c0,0-0.1,0-0.1,0c-0.9-0.8-1.8-1.1-2.9-1.1
			c-0.8,0-1.3,0.4-1.3,1c0,0.8,0.8,1,2.6,1.5c1.9,0.6,3.7,1.5,3.7,3.8C168.6,38.7,166.6,39.9,164.2,39.9 M171.6,39.6
			C171.5,39.6,171.5,39.5,171.6,39.6l-0.1-4.1c0,0,0-0.1,0.1-0.1h3.9c0,0,0.1,0,0.1,0.1v4.1c0,0,0,0.1-0.1,0.1H171.6z M186.6,34.4
			h-2.2c-1.7,0-2.8,0.7-2.8,1.6c0,1,1,1.5,2.2,1.5c2.1,0,2.8-0.9,2.8-2.4V34.4z M186.6,32.2V32c0-1.4-0.7-2.1-2.3-2.1
			c-1.4,0-3,0.5-3.7,0.9c0,0-0.1,0-0.1,0l-0.8-2.2c0,0,0-0.1,0-0.1c1.8-0.8,2.9-1.1,5.1-1.1c2.9,0,4.8,1.7,4.8,4.4v4.3
			c0,0.9,0.1,1.2,0.9,1.2h0.3c0,0,0.1,0,0.1,0.1v2.2c0,0,0,0.1-0.1,0.1c-2.6,0.1-3.1-0.5-3.5-1.4c-1,1.2-2.1,1.6-4.2,1.6
			c-2.3,0-4.4-1.4-4.4-3.8c0-2.4,2.1-3.8,4.5-3.8L186.6,32.2z M193,25.6C192.9,25.6,192.9,25.6,193,25.6l-0.1-3.1c0,0,0-0.1,0.1-0.1
			h3c0,0,0.1,0,0.1,0.1l-0.1,3c0,0,0,0.1-0.1,0.1H193z M193,39.6C193,39.6,192.9,39.5,193,39.6l-0.1-11.8c0,0,0-0.1,0.1-0.1h2.8
			c0,0,0.1,0,0.1,0.1v11.8c0,0,0,0.1-0.1,0.1H193z"/>
	</g>
	<polygon style="clip-path:url(#SVGID_00000000199130863324317570000014217185025133052055_);fill:#D1401F;" points="35.5,42.9 
		16.4,31.9 16.4,41.9 35.2,52.8 35.8,52.8 54.6,41.9 54.6,31.9 	"/>
	<polygon style="clip-path:url(#SVGID_00000000199130863324317570000014217185025133052055_);fill:#F26621;" points="16.4,41.9 
		35.2,52.8 35.5,52.8 35.5,42.9 16.4,31.9 	"/>
	<polygon style="clip-path:url(#SVGID_00000000199130863324317570000014217185025133052055_);fill:#F59626;" points="26.3,24.2 
		34.5,19.5 26.3,14.8 	"/>
	<polygon style="clip-path:url(#SVGID_00000000199130863324317570000014217185025133052055_);fill:#EDAD2B;" points="36.8,19.5 
		45,24.2 45,14.8 	"/>
	<polygon style="clip-path:url(#SVGID_00000000199130863324317570000014217185025133052055_);fill:#F59626;" points="35,9 
		26.8,13.8 35,18.5 35,9 	"/>
	<polygon style="clip-path:url(#SVGID_00000000199130863324317570000014217185025133052055_);fill:#ED9126;" points="16.9,19.5 
		25.1,24.2 25.1,14.8 	"/>
	<polygon style="clip-path:url(#SVGID_00000000199130863324317570000014217185025133052055_);fill:#F59626;" points="26.8,25.2 
		35,29.9 35,20.5 	"/>
	<polygon style="clip-path:url(#SVGID_00000000199130863324317570000014217185025133052055_);fill:#E06626;" points="26.8,36.6 
		35,41.3 35,31.9 	"/>
	<polygon style="clip-path:url(#SVGID_00000000199130863324317570000014217185025133052055_);fill:#F5703B;" points="16.9,30.9 
		25.1,35.6 25.1,26.2 	"/>
	<polygon style="clip-path:url(#SVGID_00000000199130863324317570000014217185025133052055_);fill:#F26E2B;" points="26.3,35.6 
		34.4,30.9 26.3,26.2 	"/>
	<polygon style="clip-path:url(#SVGID_00000000199130863324317570000014217185025133052055_);fill:#F78A40;" points="16.4,29.9 
		24.6,25.3 16.4,20.6 	"/>
	<polygon style="clip-path:url(#SVGID_00000000199130863324317570000014217185025133052055_);fill:#D44221;" points="36.1,41.3 
		44.3,36.6 36.1,31.9 	"/>
	<polygon style="clip-path:url(#SVGID_00000000199130863324317570000014217185025133052055_);fill:#E87054;" points="46,35.6 
		54.2,30.9 46,26.2 	"/>
	<polygon style="clip-path:url(#SVGID_00000000199130863324317570000014217185025133052055_);fill:#DB5C40;" points="36.7,30.9 
		44.9,35.6 44.9,26.2 	"/>
	<polygon style="clip-path:url(#SVGID_00000000199130863324317570000014217185025133052055_);fill:#F26B4D;" points="46.6,25.2 
		54.8,29.9 54.8,20.5 	"/>
	<polygon style="clip-path:url(#SVGID_00000000199130863324317570000014217185025133052055_);fill:#EDAD2B;" points="36.2,18.5 
		44.4,13.8 36.2,9 	"/>
	<polygon style="clip-path:url(#SVGID_00000000199130863324317570000014217185025133052055_);fill:#EDAB24;" points="46.1,24.2 
		54.3,19.5 46.1,14.8 	"/>
	<polygon style="clip-path:url(#SVGID_00000000199130863324317570000014217185025133052055_);fill:#ED8021;" points="36.1,29.9 
		44.3,25.2 36.1,20.5 	"/>
	<g style="clip-path:url(#SVGID_00000000199130863324317570000014217185025133052055_);">
		<defs>
			<rect id="SVGID_00000088125162636716570160000009360712859495284148_" x="-560" y="-35" width="792" height="612"/>
		</defs>
		<clipPath id="SVGID_00000173127599930460862320000007980463925507423891_">
			<use xlink:href="#SVGID_00000088125162636716570160000009360712859495284148_"  style="overflow:visible;"/>
		</clipPath>
	</g>
</g>
</svg>
